<svg xmlns="http://www.w3.org/2000/svg" viewBox="12390.467 1920.953 249.017 1516.094">
  <defs>
    <style>
      .cls-1 {
        fill: #979797;
        stroke: #000;
        stroke-width: 0.094px;
      }
    </style>
  </defs>
  <g id="fork" transform="translate(12509 602)">
    <path id="fork-2" data-name="fork" class="cls-1" d="M546.243,0h3.727a17.332,17.332,0,0,1,2.236,7.454c1.118,15.16,3.6,30.32,2.981,45.606-.124,5.559.994,10.991.994,16.423-.994,14.276-.124,28.678-.994,42.953.124,18.571.124,37.016,0,55.587,0,11.117.248,22.235-.994,33.226-.745,10.991.248,22.108-.994,33.1-.994,7.959,1.366,15.918-.124,24-1.366,8.212.373,16.423,1.615,24.509.994,4.548,1.615,9.475,4.6,13.139,2.981,1.895,6.832,0,9.814-1.137,5.342-3.537,6.708-10.738,6.832-16.929.621-25.646,1.615-51.418,1.739-77.19,1.242-15.918.373-31.836,1.739-47.88.745-27.035,2.485-53.944,3.23-80.98,1.366-24,.745-48.765,8.2-71.884h5.839c.994,8.591,3.6,16.8,4.845,25.267-.248,15.16,1.366,30.194,1.242,45.354.745,10.359,1.615,20.719,1.366,31.078.87,5.811-.87,11.623,0,17.434.373,4.169-.248,8.338.248,12.507,1.491,13.265-.621,26.783,1.366,40.174.87,5.18-.87,10.233-.124,15.413,1.491,13.012-.5,26.151,1.118,39.163,1.739,13.77-.5,27.793,1.615,41.437.994,7.833.5,15.792,2.981,23.245,1.615,6.569,12.671,8.717,15.528,2.021,3.727-6.443,2.981-14.276,3.354-21.477,0-48.007-.124-96.013,0-144.02.745-19.329,0-38.784.745-58.113.373-23.245-.745-47.249,7.2-69.483h7.081c2.857,9.728,2.981,19.961,4.72,29.941,1.242,10.991,2.733,22.108,3.478,33.226-.248,12.507-.124,25.014.124,37.521,1.242,10.612.621,21.35,1.988,31.962-.373,10.107,1.988,20.213,1.491,30.32-.248,8.085,1.739,15.918,1.367,24-.621,10.107.373,20.213.994,30.32-.373,10.612,1.739,20.971,1.366,31.583-.249,7.58,1.491,15.16,1.242,22.74-.124,7.2,0,14.907,3.478,21.477,3.478,6.064,14.907,7.959,17.764.379,2.981-6.443,1.739-13.9,1.366-20.719-.5-13.518-.5-26.909-.745-40.3-1.491-22.361-.5-44.6-1.863-66.83-.87-29.057-.248-58.24-.745-87.3-.248-16.044-.124-31.962-.248-48.007.248-8.717.124-17.56,2.112-26.025.373-2.021,2.112-3.032,3.6-4.3h2.236c4.6,4.548,5.093,11.37,6.708,17.308,2.112,8.212,2.236,16.676,2.857,25.14,3.851,18.7,5.217,37.774,8.7,56.6,8.074,52.3,18.509,104.1,26.459,156.4,3.727,21.982,5.59,44.217,7.95,66.325,2.484,30.825,2.609,62.282-3.851,92.729-1.118,5.685-4.72,10.486-5.714,16.3-.87,7.2-6.46,12.507-9.689,18.7-7.329,9.854-13.416,20.719-22.112,29.309-5.466,5.18-9.938,11.37-16.025,15.792-4.969,3.537-8.82,8.464-13.292,12.507-8.2,7.58-14.161,17.055-19.752,26.656-5.466,10.991-12.05,21.982-13.043,34.615-1.987,49.27-2.733,98.793-.621,148.189,2.733,24.256,2.733,48.765,4.348,73.147,1.863,29.436,2.733,59,5.59,88.433,1.367,23.245,5.093,46.238,7.205,69.357.621,7.454,2.36,14.655,3.6,22.108,2.112,26.783,6.46,53.439,8.7,80.348,2.484,16.423,4.1,33.1,6.211,49.649,2.484,28.8,4.969,57.482,8.7,86.033,1.739,23.751,5.093,47.5,6.46,71.378,2.733,17.181,3.106,34.489,4.72,51.8,1.118,20.339,2.733,40.679,3.106,61.019,1.367,14.655.124,29.309.994,43.964a186.049,186.049,0,0,1-4.6,50.407c-3.975,17.055-13.665,33.352-28.571,42.827-6.584,4.422-14.534,5.685-21.739,8.97H606.616a31.2,31.2,0,0,0-7.453-3.537,70.228,70.228,0,0,1-22.484-12.381c-10.807-9.1-17.391-22.108-22.112-35.247a281.006,281.006,0,0,1-5.093-54.955c0-14.276-.373-28.678.621-42.953.124-22.866,3.106-45.606,4.969-68.346,3.478-34.489,6.335-68.978,10.062-103.341,10.559-99.3,19.255-198.849,28.571-298.273.994-12.254,2.609-24.509,2.609-36.763,1.366-22.74,2.112-45.48,3.478-68.094,0-13.012,1.615-26.025,1.615-39.037.994-8.97.745-18.066,1.491-27.162,1.739-10.233.994-20.719,1.118-31.078.124-34.11,0-68.22.248-102.33.124-6.443-.124-13.012-1.739-19.2-3.6-17.813-7.578-36.889-20.124-50.533-9.565-10.107-18.882-20.34-28.7-30.194a191.991,191.991,0,0,1-55.155-99.551c-3.975-18.318-4.6-37.142-4.224-55.713,1.863-47.88,10.311-95,17.64-142.125,5.093-31.962,9.938-63.925,15.031-95.887,4.6-30.7,10.435-61.272,15.4-91.844A11.468,11.468,0,0,1,546.243,0Z" transform="translate(-612.726 1319)"/>
  </g>
</svg>
