<svg xmlns="http://www.w3.org/2000/svg" viewBox="14240.187 1918.762 295.022 1519.496">
  <defs>
    <style>
      .cls-1 {
        fill: #979797;
      }
    </style>
  </defs>
  <g id="knife" transform="translate(12509 602)">
    <g id="knife-2" data-name="knife" transform="matrix(1, -0.017, 0.017, 1, 655.915, 1395.191)">
      <path id="Path_28" data-name="Path 28" d="M60.927,5.042c-2.715,0-5.491.048-8.185.065H52.7C55.416,5.09,58.171,5.042,60.927,5.042Z" transform="translate(1022.989 3.792)"/>
      <path id="Path_29" data-name="Path 29" d="M61.35,5.107h-.041C58.574,5.09,55.8,5.042,53.1,5.042,55.839,5.042,58.595,5.09,61.35,5.107Z" transform="translate(1030.812 3.792)"/>
      <path id="Path_30" data-name="Path 30" d="M52.815,5.107a.177.177,0,0,1-.122.032c2.8-.032,5.552-.1,8.369-.1C58.326,5.042,55.571,5.09,52.815,5.107Z" transform="translate(1022.833 3.792)"/>
      <path id="Path_31" data-name="Path 31" d="M61.473,5.139a.177.177,0,0,1-.122-.032c-2.755-.016-5.511-.065-8.246-.065C55.88,5.042,58.676,5.107,61.473,5.139Z" transform="translate(1030.812 3.792)"/>
      <path id="Path_32" data-name="Path 32" d="M52.926,5.139a1.452,1.452,0,0,1-.245.081c2.9-.113,5.715-.178,8.614-.178C58.519,5.042,55.722,5.107,52.926,5.139Z" transform="translate(1022.601 3.792)"/>
      <path id="Path_33" data-name="Path 33" d="M61.676,5.22a.534.534,0,0,1-.2-.081c-2.817-.032-5.572-.1-8.369-.1C55.981,5.042,58.839,5.107,61.676,5.22Z" transform="translate(1030.792 3.792)"/>
      <g id="Group_14" data-name="Group 14" transform="translate(1131.432 -54.964)">
        <path id="Path_34" data-name="Path 34" d="M54.667,34.39h.039l-.039.051Z" transform="translate(-39.669 460.458)"/>
        <path id="Path_35" data-name="Path 35" d="M54.784,32.161l.039.017-.039.034Z" transform="translate(-42.086 425.11)"/>
        <path id="Path_36" data-name="Path 36" class="cls-1" d="M47.732,1353.654c24.769-164.213,103.852-524.787,63.376-726.9,0,0-39.885-18.308-44.446-55.26-.413-3.119-.668-6.069-1-9.137l6.6-6.81-8.02-5.614v-.051l6.644-6.76-8-5.681,6.821-6.794-7.942-5.681v-.051l6.743-6.709-7.8-5.715v-.1l6.841-6.676L59.7,499.884l6.9-6.608-7.745-5.883s0-.051-.02-.067l6.959-6.558L58.072,474.9v-.1l6.959-6.524-7.647-5.968,7.057-6.507-7.529-5.951v-.185l7.037-6.372-7.509-6v-.1l7.155-6.339-7.47-6.1v-.1l7.214-6.288-7.332-6.1v-.185l7.214-6.187-7.293-6.221v-.051l7.372-6.2-7.175-6.2v-.236l7.332-6.035-7.1-6.3v-.152l7.411-6.018L56.755,362.1v-.135L64.323,356l-6.959-6.372v-.27l7.49-5.85L57.895,337v-.1l7.725-5.867-6.8-6.473a.607.607,0,0,0,.039-.27l7.647-5.7L59.762,312v-.2l7.8-5.647-6.6-6.608a.808.808,0,0,0,.039-.3l7.8-5.529L62.3,287.019v-.2l7.9-5.513-6.389-6.693a.9.9,0,0,1,.039-.32l7.961-5.361-6.33-6.777v-.3l8.079-5.277-6.153-6.794c0-.152.039-.27.039-.388l8.1-5.159-6.133-6.912a.621.621,0,0,0,.059-.32l8.2-5.091-5.917-6.946c.02-.118.059-.253.079-.371l8.178-4.956-5.878-7.08a1.276,1.276,0,0,0,.1-.287l8.354-4.889-5.661-7.064c.039-.135.059-.3.1-.421l8.335-4.72-5.524-7.148a1.522,1.522,0,0,0,.1-.4l8.492-4.6-5.386-7.215c.039-.152.079-.3.118-.438l8.551-4.467-5.249-7.249a3.111,3.111,0,0,1,.118-.489l8.61-4.316-5.15-7.384c.059-.152.118-.287.157-.421l8.708-4.2-4.895-7.384c.059-.169.1-.354.157-.506l8.708-4.029-4.7-7.434c.1-.185.157-.354.236-.539l8.748-3.86-4.5-7.535a1.408,1.408,0,0,1,.236-.523l8.826-3.692-4.305-7.637c.039-.152.118-.337.157-.489l9.062-3.506-4.109-7.67c.118-.2.2-.388.295-.573l9.062-3.287-3.774-7.738a1.99,1.99,0,0,1,.275-.59l9.023-3.1-3.578-7.788C147.3,25.013,169.334,5.036,175.9,5.036c25.791,0,24.572,36.936,24.572,36.936l-4.914,529.491c0,37.172-3.951,55.277-3.951,55.277-40.475,202.11,38.608,562.684,63.357,726.9,24.769,164.247-103.616,167.4-103.616,167.4S23,1517.884,47.732,1353.654Z" transform="translate(-44.568 -5.036)"/>
        <path id="Path_37" data-name="Path 37" d="M54.5,36.617Z" transform="translate(-36.2 495.773)"/>
      </g>
    </g>
  </g>
</svg>
